<svg width="232" height="60" viewBox="0 0 232 60" fill="none" xmlns="http://www.w3.org/2000/svg">
<path fill-rule="evenodd" clip-rule="evenodd" d="M20.7981 0H17.6826V8.9856H20.9422C29.213 8.9856 35.9178 15.6904 35.9178 23.9612C35.9178 32.232 29.213 38.9368 20.9422 38.9368H17.6826L17.6826 47.922H20.7981C34.0314 47.922 44.7591 37.1943 44.7591 23.961C44.7591 10.7277 34.0314 0 20.7981 0Z" fill="#18A756"/>
<rect y="14.9766" width="8.84129" height="32.9464" rx="4.42064" fill="#ECB22E"/>
<rect y="8.98535" width="8.98537" height="23.5768" rx="4.49269" transform="rotate(-90 0 8.98535)" fill="#E01E5A"/>
<rect x="11.7883" y="47.9238" width="8.98537" height="11.7884" rx="4.49269" transform="rotate(-90 11.7883 47.9238)" fill="#2EB67D"/>
<path d="M52.9953 45.594C51.7772 45.594 50.8341 45.2545 50.1661 44.5756C49.5374 43.8568 49.223 42.8784 49.223 41.6404V6.35786C49.223 5.07995 49.5374 4.10153 50.1661 3.42264C50.8341 2.74374 51.7772 2.4043 52.9953 2.4043C54.2134 2.4043 55.1369 2.74374 55.7656 3.42264C56.4336 4.10153 56.7676 5.07995 56.7676 6.35786V41.6404C56.7676 42.8784 56.4532 43.8568 55.8245 44.5756C55.1958 45.2545 54.2527 45.594 52.9953 45.594Z" fill="#18A756"/>
<path d="M65.0595 45.594C63.8414 45.594 62.8983 45.2545 62.2303 44.5756C61.6016 43.8568 61.2872 42.8784 61.2872 41.6404V6.29796C61.2872 5.02005 61.6016 4.06161 62.2303 3.42264C62.8983 2.74374 63.8414 2.4043 65.0595 2.4043C66.2777 2.4043 67.2011 2.74374 67.8298 3.42264C68.4978 4.06161 68.8318 5.02005 68.8318 6.29796V21.5731H68.9497L85.8661 4.32118C86.4947 3.68222 87.1235 3.203 87.7522 2.88352C88.3809 2.56404 89.0882 2.4043 89.8741 2.4043C91.0136 2.4043 91.8192 2.70381 92.2907 3.30284C92.8015 3.90186 92.998 4.60072 92.8801 5.39942C92.8015 6.19812 92.4282 6.93692 91.7603 7.61582L74.5492 24.9276L74.6082 21.4533L92.5854 40.0231C93.4106 40.8217 93.8428 41.6604 93.8822 42.539C93.9214 43.4176 93.6464 44.1563 93.057 44.7554C92.5068 45.3144 91.6816 45.594 90.5814 45.594C89.6383 45.594 88.8721 45.3943 88.2827 44.995C87.7325 44.5956 87.0841 44.0166 86.3376 43.2578L68.9497 25.5866H68.8318V41.6404C68.8318 42.8784 68.5174 43.8568 67.8887 44.5756C67.26 45.2545 66.3169 45.594 65.0595 45.594Z" fill="#18A756"/>
<path d="M102.491 45.1609C101.195 45.1609 100.193 44.8215 99.4853 44.1426C98.8173 43.4238 98.4833 42.4054 98.4833 41.0876V7.00306C98.4833 5.6852 98.8173 4.68683 99.4853 4.00793C100.193 3.2891 101.195 2.92969 102.491 2.92969H123.534C124.516 2.92969 125.263 3.18927 125.773 3.70842C126.324 4.22758 126.599 4.96637 126.599 5.92481C126.599 6.92318 126.324 7.70192 125.773 8.26101C125.263 8.78016 124.516 9.03974 123.534 9.03974H105.733V20.6608H122.237C123.259 20.6608 124.025 20.9204 124.536 21.4396C125.046 21.9587 125.302 22.7174 125.302 23.7159C125.302 24.7143 125.046 25.473 124.536 25.9921C124.025 26.5113 123.259 26.7709 122.237 26.7709H105.733V39.0509H123.534C124.516 39.0509 125.263 39.3104 125.773 39.8296C126.324 40.3488 126.599 41.1075 126.599 42.1059C126.599 43.1043 126.324 43.863 125.773 44.3822C125.263 44.9014 124.516 45.1609 123.534 45.1609H102.491Z" fill="#18A756"/>
<path d="M134.863 45.3589C133.645 45.3589 132.702 45.0194 132.034 44.3406C131.405 43.6217 131.091 42.6434 131.091 41.4053V6.5421C131.091 5.26418 131.425 4.30574 132.093 3.66678C132.761 2.98789 133.704 2.64844 134.922 2.64844H149.127C153.685 2.64844 157.202 3.76661 159.678 6.00298C162.153 8.1994 163.391 11.2944 163.391 15.2879C163.391 17.8836 162.821 20.12 161.682 21.9969C160.581 23.8739 158.97 25.3115 156.848 26.3099C154.726 27.3083 152.153 27.8075 149.127 27.8075L149.657 26.9089H151.602C153.214 26.9089 154.609 27.3083 155.787 28.107C157.006 28.9057 158.066 30.1636 158.97 31.8809L163.391 40.2073C163.862 41.0459 164.079 41.8646 164.039 42.6633C164 43.462 163.705 44.1209 163.155 44.6401C162.605 45.1193 161.799 45.3589 160.738 45.3589C159.678 45.3589 158.813 45.1392 158.145 44.7C157.477 44.2208 156.888 43.5019 156.377 42.5435L150.424 31.4016C149.716 30.0438 148.872 29.1453 147.889 28.706C146.946 28.2268 145.728 27.9872 144.235 27.9872H138.635V41.4053C138.635 42.6434 138.321 43.6217 137.692 44.3406C137.063 45.0194 136.12 45.3589 134.863 45.3589ZM138.635 22.2965H147.83C150.542 22.2965 152.585 21.7374 153.96 20.6192C155.375 19.4611 156.082 17.7439 156.082 15.4676C156.082 13.2312 155.375 11.5539 153.96 10.4358C152.585 9.27764 150.542 8.69859 147.83 8.69859H138.635V22.2965Z" fill="#18A756"/>
<path d="M172.112 45.5341C171.012 45.5741 170.147 45.2745 169.519 44.6356C168.89 43.9966 168.575 43.178 168.575 42.1796C168.575 41.4208 168.811 40.7618 169.283 40.2028C169.715 39.6037 170.363 39.2843 171.228 39.2443L172.996 39.1245C174.725 39.0047 176.022 38.4656 176.886 37.5072C177.79 36.5088 178.242 35.0911 178.242 33.2541V6.29796C178.242 5.02005 178.556 4.06161 179.185 3.42264C179.853 2.74374 180.796 2.4043 182.014 2.4043C183.232 2.4043 184.156 2.74374 184.784 3.42264C185.452 4.06161 185.786 5.02005 185.786 6.29796V33.1942C185.786 35.7101 185.335 37.8466 184.431 39.6037C183.566 41.3609 182.27 42.7386 180.541 43.737C178.812 44.6955 176.67 45.2545 174.116 45.4143L172.112 45.5341Z" fill="#18A756"/>
<path d="M193.784 45.594C192.841 45.594 192.075 45.3743 191.485 44.9351C190.935 44.4958 190.601 43.9167 190.483 43.1979C190.365 42.4391 190.503 41.6005 190.896 40.682L206.457 5.63903C206.967 4.48091 207.576 3.66225 208.284 3.18303C209.03 2.66387 209.875 2.4043 210.818 2.4043C211.722 2.4043 212.528 2.66387 213.235 3.18303C213.982 3.66225 214.61 4.48091 215.121 5.63903L230.741 40.682C231.173 41.6005 231.33 42.4391 231.212 43.1979C231.094 43.9567 230.76 44.5557 230.21 44.995C229.66 45.3943 228.933 45.594 228.029 45.594C226.929 45.594 226.065 45.3344 225.436 44.8153C224.846 44.2562 224.316 43.4176 223.844 42.2994L220.013 33.2541L223.196 35.3507H198.323L201.505 33.2541L197.733 42.2994C197.222 43.4574 196.692 44.2961 196.142 44.8153C195.592 45.3344 194.806 45.594 193.784 45.594ZM210.7 11.21L202.449 31.1575L200.916 29.2406H220.603L219.129 31.1575L210.818 11.21H210.7Z" fill="#18A756"/>
<path d="M1.86896 59.9013C1.65824 59.9013 1.49542 59.8462 1.38048 59.7358C1.27193 59.619 1.21765 59.4536 1.21765 59.2394V53.7007C1.21765 53.4865 1.27193 53.3243 1.38048 53.214C1.49542 53.0972 1.65824 53.0387 1.86896 53.0387H3.7271C4.85732 53.0387 5.72892 53.334 6.34192 53.9246C6.9613 54.5151 7.27099 55.362 7.27099 56.4652C7.27099 57.0168 7.19117 57.5067 7.03154 57.935C6.87829 58.3568 6.64841 58.7138 6.34192 59.0058C6.0418 59.2978 5.67145 59.5217 5.23086 59.6774C4.79665 59.8267 4.2954 59.9013 3.7271 59.9013H1.86896ZM2.44364 58.8695H3.65048C4.04637 58.8695 4.38799 58.8208 4.67533 58.7235C4.96906 58.6197 5.2117 58.4704 5.40326 58.2757C5.60121 58.0746 5.74808 57.8247 5.84386 57.5262C5.93964 57.2212 5.98753 56.8675 5.98753 56.4652C5.98753 55.6605 5.79277 55.0602 5.40326 54.6644C5.01376 54.2685 4.4295 54.0706 3.65048 54.0706H2.44364V58.8695Z" fill="#18A756"/>
<path d="M11.6359 59.9987C10.9846 59.9987 10.4131 59.8527 9.92142 59.5606C9.43613 59.2686 9.05939 58.8598 8.79121 58.3341C8.52302 57.802 8.38893 57.179 8.38893 56.4652C8.38893 55.9265 8.46555 55.4431 8.6188 55.0148C8.77205 54.58 8.98915 54.2101 9.27011 53.9051C9.55745 53.5936 9.89907 53.3567 10.295 53.1945C10.6972 53.0258 11.1442 52.9414 11.6359 52.9414C12.2936 52.9414 12.8651 53.0874 13.3504 53.3794C13.8357 53.665 14.2124 54.0706 14.4806 54.5962C14.7488 55.1219 14.8829 55.7416 14.8829 56.4554C14.8829 56.9941 14.8062 57.4808 14.653 57.9156C14.4997 58.3504 14.2794 58.7235 13.9921 59.035C13.7111 59.3465 13.3695 59.5866 12.9672 59.7553C12.5713 59.9176 12.1276 59.9987 11.6359 59.9987ZM11.6359 58.9279C12.0509 58.9279 12.4021 58.8306 12.6895 58.6359C12.9832 58.4412 13.2067 58.1589 13.3599 57.789C13.5196 57.4191 13.5994 56.9778 13.5994 56.4652C13.5994 55.6864 13.427 55.0829 13.0822 54.6546C12.7438 54.2263 12.2617 54.0122 11.6359 54.0122C11.2272 54.0122 10.876 54.1095 10.5823 54.3042C10.2886 54.4924 10.0619 54.7714 9.90226 55.1413C9.74901 55.5047 9.67239 55.946 9.67239 56.4652C9.67239 57.2374 9.84479 57.8409 10.1896 58.2757C10.5344 58.7105 11.0165 58.9279 11.6359 58.9279Z" fill="#18A756"/>
<path d="M16.8383 59.9792C16.6403 59.9792 16.4871 59.924 16.3785 59.8137C16.2764 59.6969 16.2253 59.5379 16.2253 59.3367V53.5936C16.2253 53.3859 16.2764 53.2302 16.3785 53.1264C16.4871 53.016 16.6403 52.9609 16.8383 52.9609C17.0362 52.9609 17.1863 53.016 17.2884 53.1264C17.397 53.2302 17.4513 53.3859 17.4513 53.5936V56.0758H17.4704L20.2193 53.2724C20.3215 53.1685 20.4237 53.0907 20.5258 53.0387C20.628 52.9868 20.7429 52.9609 20.8706 52.9609C21.0558 52.9609 21.1867 53.0095 21.2633 53.1069C21.3464 53.2042 21.3783 53.3178 21.3591 53.4476C21.3463 53.5774 21.2857 53.6974 21.1771 53.8077L18.3803 56.6209L18.3899 56.0563L21.3112 59.0739C21.4453 59.2037 21.5156 59.34 21.5219 59.4828C21.5283 59.6255 21.4836 59.7456 21.3879 59.8429C21.2985 59.9338 21.1644 59.9792 20.9856 59.9792C20.8323 59.9792 20.7078 59.9468 20.612 59.8819C20.5226 59.817 20.4173 59.7229 20.296 59.5996L17.4704 56.728H17.4513V59.3367C17.4513 59.5379 17.4002 59.6969 17.298 59.8137C17.1959 59.924 17.0426 59.9792 16.8383 59.9792Z" fill="#18A756"/>
<path d="M25.4037 59.9987C24.9376 59.9987 24.5257 59.937 24.1681 59.8137C23.8169 59.6904 23.52 59.5087 23.2774 59.2686C23.0347 59.022 22.8527 58.717 22.7314 58.3536C22.6101 57.9902 22.5494 57.5684 22.5494 57.0882V53.5936C22.5494 53.3794 22.6005 53.2205 22.7027 53.1166C22.8112 53.0128 22.9645 52.9609 23.1624 52.9609C23.3604 52.9609 23.5104 53.0128 23.6126 53.1166C23.7211 53.2205 23.7754 53.3794 23.7754 53.5936V57.0784C23.7754 57.6949 23.9127 58.1589 24.1873 58.4704C24.4682 58.7754 24.8737 58.9279 25.4037 58.9279C25.9337 58.9279 26.3359 58.7754 26.6105 58.4704C26.8851 58.1589 27.0224 57.6949 27.0224 57.0784V53.5936C27.0224 53.3794 27.0735 53.2205 27.1756 53.1166C27.2842 53.0128 27.4374 52.9609 27.6354 52.9609C27.8269 52.9609 27.9738 53.0128 28.076 53.1166C28.1845 53.2205 28.2388 53.3794 28.2388 53.5936V57.0882C28.2388 57.7241 28.1302 58.2595 27.9131 58.6943C27.7024 59.1291 27.3863 59.4568 26.9649 59.6774C26.5435 59.8916 26.0231 59.9987 25.4037 59.9987Z" fill="#18A756"/>
<path d="M30.3391 59.9792C30.1603 59.9792 30.023 59.9273 29.9272 59.8235C29.8314 59.7196 29.7836 59.5769 29.7836 59.3952V53.5449C29.7836 53.3567 29.8346 53.214 29.9368 53.1166C30.039 53.0128 30.1794 52.9609 30.3582 52.9609C30.5179 52.9609 30.6424 52.9933 30.7318 53.0582C30.8276 53.1166 30.9138 53.2205 30.9904 53.3697L33.3562 57.8182H33.0497L35.4155 53.3697C35.4921 53.2205 35.5751 53.1166 35.6645 53.0582C35.7539 52.9933 35.8784 52.9609 36.038 52.9609C36.2168 52.9609 36.3541 53.0128 36.4499 53.1166C36.5457 53.214 36.5936 53.3567 36.5936 53.5449V59.3952C36.5936 59.5769 36.5457 59.7196 36.4499 59.8235C36.3605 59.9273 36.2232 59.9792 36.038 59.9792C35.8592 59.9792 35.722 59.9273 35.6262 59.8235C35.5304 59.7196 35.4825 59.5769 35.4825 59.3952V54.8882H35.6932L33.6818 58.6164C33.618 58.7267 33.5509 58.8079 33.4807 58.8598C33.4104 58.9117 33.3147 58.9376 33.1933 58.9376C33.072 58.9376 32.973 58.9117 32.8964 58.8598C32.8198 58.8014 32.7528 58.7203 32.6953 58.6164L30.6647 54.8785H30.8946V59.3952C30.8946 59.5769 30.8467 59.7196 30.7509 59.8235C30.6615 59.9273 30.5243 59.9792 30.3391 59.9792Z" fill="#18A756"/>
<path d="M38.8268 59.9013C38.6161 59.9013 38.4533 59.8462 38.3383 59.7358C38.2298 59.619 38.1755 59.4536 38.1755 59.2394V53.7007C38.1755 53.4865 38.2298 53.3243 38.3383 53.214C38.4533 53.0972 38.6161 53.0387 38.8268 53.0387H42.2462C42.4058 53.0387 42.5271 53.0809 42.6101 53.1653C42.6995 53.2497 42.7442 53.3697 42.7442 53.5255C42.7442 53.6877 42.6995 53.8142 42.6101 53.9051C42.5271 53.9895 42.4058 54.0316 42.2462 54.0316H39.3536V55.9201H42.0355C42.2015 55.9201 42.326 55.9622 42.409 56.0466C42.492 56.131 42.5335 56.2543 42.5335 56.4165C42.5335 56.5787 42.492 56.702 42.409 56.7864C42.326 56.8708 42.2015 56.9129 42.0355 56.9129H39.3536V58.9084H42.2462C42.4058 58.9084 42.5271 58.9506 42.6101 59.035C42.6995 59.1194 42.7442 59.2426 42.7442 59.4049C42.7442 59.5671 42.6995 59.6904 42.6101 59.7748C42.5271 59.8591 42.4058 59.9013 42.2462 59.9013H38.8268Z" fill="#18A756"/>
<path d="M44.561 59.9792C44.3758 59.9792 44.2322 59.9273 44.13 59.8235C44.0342 59.7196 43.9863 59.5704 43.9863 59.3757V53.5839C43.9863 53.3827 44.0342 53.2302 44.13 53.1264C44.2322 53.016 44.3631 52.9609 44.5227 52.9609C44.6696 52.9609 44.7781 52.9901 44.8483 53.0485C44.925 53.1004 45.0144 53.1912 45.1165 53.321L48.7849 58.1589H48.5359V53.5547C48.5359 53.3665 48.5838 53.2205 48.6796 53.1166C48.7817 53.0128 48.9254 52.9609 49.1106 52.9609C49.2958 52.9609 49.4362 53.0128 49.532 53.1166C49.6278 53.2205 49.6757 53.3665 49.6757 53.5547V59.3952C49.6757 59.5769 49.631 59.7196 49.5416 59.8235C49.4522 59.9273 49.3309 59.9792 49.1776 59.9792C49.0308 59.9792 48.9126 59.95 48.8232 59.8916C48.7402 59.8332 48.6476 59.7391 48.5455 59.6093L44.8867 54.7714H45.1261V59.3757C45.1261 59.5704 45.0782 59.7196 44.9824 59.8235C44.8867 59.9273 44.7462 59.9792 44.561 59.9792Z" fill="#18A756"/>
<path d="M54.5943 59.9013C54.3836 59.9013 54.2208 59.8462 54.1058 59.7358C53.9973 59.619 53.943 59.4536 53.943 59.2394V53.7007C53.943 53.4865 53.9973 53.3243 54.1058 53.214C54.2208 53.0972 54.3836 53.0387 54.5943 53.0387H58.0137C58.1733 53.0387 58.2947 53.0809 58.3777 53.1653C58.4671 53.2497 58.5118 53.3697 58.5118 53.5255C58.5118 53.6877 58.4671 53.8142 58.3777 53.9051C58.2947 53.9895 58.1733 54.0316 58.0137 54.0316H55.1211V55.9201H57.803C57.969 55.9201 58.0935 55.9622 58.1765 56.0466C58.2595 56.131 58.301 56.2543 58.301 56.4165C58.301 56.5787 58.2595 56.702 58.1765 56.7864C58.0935 56.8708 57.969 56.9129 57.803 56.9129H55.1211V58.9084H58.0137C58.1733 58.9084 58.2947 58.9506 58.3777 59.035C58.4671 59.1194 58.5118 59.2426 58.5118 59.4049C58.5118 59.5671 58.4671 59.6904 58.3777 59.7748C58.2947 59.8591 58.1733 59.9013 58.0137 59.9013H54.5943Z" fill="#18A756"/>
<path d="M60.3764 59.9013C60.1785 59.9013 60.0252 59.8462 59.9167 59.7358C59.8081 59.619 59.7538 59.46 59.7538 59.2589V53.6423C59.7538 53.4346 59.8049 53.2789 59.9071 53.175C60.0156 53.0647 60.1689 53.0095 60.3668 53.0095C60.5648 53.0095 60.7148 53.0647 60.817 53.175C60.9255 53.2789 60.9798 53.4346 60.9798 53.6423V58.8403H63.7575C63.9299 58.8403 64.0608 58.8857 64.1502 58.9766C64.2459 59.0674 64.2938 59.1972 64.2938 59.3659C64.2938 59.5347 64.2459 59.6677 64.1502 59.765C64.0608 59.8559 63.9299 59.9013 63.7575 59.9013H60.3764Z" fill="#18A756"/>
<path d="M65.8792 59.9013C65.6685 59.9013 65.5057 59.8462 65.3908 59.7358C65.2822 59.619 65.2279 59.4536 65.2279 59.2394V53.7007C65.2279 53.4865 65.2822 53.3243 65.3908 53.214C65.5057 53.0972 65.6685 53.0387 65.8792 53.0387H69.2986C69.4582 53.0387 69.5796 53.0809 69.6626 53.1653C69.752 53.2497 69.7967 53.3697 69.7967 53.5255C69.7967 53.6877 69.752 53.8142 69.6626 53.9051C69.5796 53.9895 69.4582 54.0316 69.2986 54.0316H66.406V55.9201H69.0879C69.2539 55.9201 69.3784 55.9622 69.4614 56.0466C69.5444 56.131 69.5859 56.2543 69.5859 56.4165C69.5859 56.5787 69.5444 56.702 69.4614 56.7864C69.3784 56.8708 69.2539 56.9129 69.0879 56.9129H66.406V58.9084H69.2986C69.4582 58.9084 69.5796 58.9506 69.6626 59.035C69.752 59.1194 69.7967 59.2426 69.7967 59.4049C69.7967 59.5671 69.752 59.6904 69.6626 59.7748C69.5796 59.8591 69.4582 59.9013 69.2986 59.9013H65.8792Z" fill="#18A756"/>
<path d="M71.6517 59.9792C71.4538 59.9792 71.3005 59.924 71.192 59.8137C71.0898 59.6969 71.0387 59.5379 71.0387 59.3367V53.5936C71.0387 53.3859 71.0898 53.2302 71.192 53.1264C71.3005 53.016 71.4538 52.9609 71.6517 52.9609C71.8497 52.9609 71.9997 53.016 72.1019 53.1264C72.2105 53.2302 72.2647 53.3859 72.2647 53.5936V56.0758H72.2839L75.0328 53.2724C75.135 53.1685 75.2371 53.0907 75.3393 53.0387C75.4415 52.9868 75.5564 52.9609 75.6841 52.9609C75.8693 52.9609 76.0002 53.0095 76.0768 53.1069C76.1598 53.2042 76.1917 53.3178 76.1726 53.4476C76.1598 53.5774 76.0992 53.6974 75.9906 53.8077L73.1938 56.6209L73.2034 56.0563L76.1247 59.0739C76.2588 59.2037 76.329 59.34 76.3354 59.4828C76.3418 59.6255 76.2971 59.7456 76.2013 59.8429C76.1119 59.9338 75.9778 59.9792 75.799 59.9792C75.6458 59.9792 75.5213 59.9468 75.4255 59.8819C75.3361 59.817 75.2307 59.7229 75.1094 59.5996L72.2839 56.728H72.2647V59.3367C72.2647 59.5379 72.2136 59.6969 72.1115 59.8137C72.0093 59.924 71.8561 59.9792 71.6517 59.9792Z" fill="#18A756"/>
<path d="M79.4088 59.9792C79.2109 59.9792 79.0576 59.924 78.9491 59.8137C78.8469 59.6969 78.7958 59.5379 78.7958 59.3367V54.0803H76.9281C76.7621 54.0803 76.6312 54.0349 76.5354 53.944C76.446 53.8467 76.4013 53.7169 76.4013 53.5547C76.4013 53.3859 76.446 53.2594 76.5354 53.175C76.6312 53.0842 76.7621 53.0387 76.9281 53.0387H81.8896C82.0556 53.0387 82.1833 53.0842 82.2727 53.175C82.3685 53.2594 82.4164 53.3859 82.4164 53.5547C82.4164 53.7169 82.3685 53.8467 82.2727 53.944C82.1833 54.0349 82.0556 54.0803 81.8896 54.0803H80.0218V59.3367C80.0218 59.5379 79.9708 59.6969 79.8686 59.8137C79.7664 59.924 79.6132 59.9792 79.4088 59.9792Z" fill="#18A756"/>
<path d="M83.8252 59.9792C83.6273 59.9792 83.474 59.924 83.3655 59.8137C83.2633 59.6969 83.2122 59.5379 83.2122 59.3367V53.6715C83.2122 53.4638 83.2665 53.3081 83.3751 53.2042C83.4836 53.0939 83.6369 53.0387 83.8348 53.0387H86.1431C86.8838 53.0387 87.4553 53.2205 87.8576 53.5839C88.2599 53.9408 88.461 54.4437 88.461 55.0927C88.461 55.5145 88.3684 55.8779 88.1833 56.1829C88.0045 56.4879 87.7427 56.7215 87.3979 56.8837C87.053 57.046 86.6348 57.1271 86.1431 57.1271L86.2293 56.9811H86.5454C86.8072 56.9811 87.0339 57.046 87.2254 57.1758C87.4234 57.3056 87.5958 57.51 87.7427 57.789L88.461 59.1421C88.5376 59.2783 88.5728 59.4114 88.5664 59.5412C88.56 59.671 88.5121 59.778 88.4227 59.8624C88.3333 59.9403 88.2024 59.9792 88.03 59.9792C87.8576 59.9792 87.7171 59.9435 87.6086 59.8721C87.5 59.7943 87.4042 59.6774 87.3212 59.5217L86.3538 57.7111C86.2389 57.4905 86.1016 57.3445 85.942 57.2731C85.7887 57.1952 85.5908 57.1563 85.3481 57.1563H84.4382V59.3367C84.4382 59.5379 84.3871 59.6969 84.285 59.8137C84.1828 59.924 84.0296 59.9792 83.8252 59.9792ZM84.4382 56.2316H85.9324C86.373 56.2316 86.705 56.1407 86.9285 55.959C87.1584 55.7708 87.2733 55.4918 87.2733 55.1219C87.2733 54.7584 87.1584 54.4859 86.9285 54.3042C86.705 54.116 86.373 54.0219 85.9324 54.0219H84.4382V56.2316Z" fill="#18A756"/>
<path d="M92.8541 59.9987C92.2028 59.9987 91.6313 59.8527 91.1396 59.5606C90.6544 59.2686 90.2776 58.8598 90.0094 58.3341C89.7413 57.802 89.6072 57.179 89.6072 56.4652C89.6072 55.9265 89.6838 55.4431 89.837 55.0148C89.9903 54.58 90.2074 54.2101 90.4883 53.9051C90.7757 53.5936 91.1173 53.3567 91.5132 53.1945C91.9155 53.0258 92.3624 52.9414 92.8541 52.9414C93.5118 52.9414 94.0833 53.0874 94.5686 53.3794C95.0539 53.665 95.4306 54.0706 95.6988 54.5962C95.967 55.1219 96.1011 55.7416 96.1011 56.4554C96.1011 56.9941 96.0245 57.4808 95.8712 57.9156C95.718 58.3504 95.4977 58.7235 95.2103 59.035C94.9294 59.3465 94.5878 59.5866 94.1855 59.7553C93.7896 59.9176 93.3458 59.9987 92.8541 59.9987ZM92.8541 58.9279C93.2692 58.9279 93.6204 58.8306 93.9077 58.6359C94.2014 58.4412 94.4249 58.1589 94.5782 57.789C94.7378 57.4191 94.8176 56.9778 94.8176 56.4652C94.8176 55.6864 94.6452 55.0829 94.3004 54.6546C93.962 54.2263 93.4799 54.0122 92.8541 54.0122C92.4455 54.0122 92.0943 54.1095 91.8005 54.3042C91.5068 54.4924 91.2801 54.7714 91.1205 55.1413C90.9672 55.5047 90.8906 55.946 90.8906 56.4652C90.8906 57.2374 91.063 57.8409 91.4078 58.2757C91.7526 58.7105 92.2347 58.9279 92.8541 58.9279Z" fill="#18A756"/>
<path d="M98.0182 59.9792C97.833 59.9792 97.6893 59.9273 97.5872 59.8235C97.4914 59.7196 97.4435 59.5704 97.4435 59.3757V53.5839C97.4435 53.3827 97.4914 53.2302 97.5872 53.1264C97.6893 53.016 97.8202 52.9609 97.9799 52.9609C98.1267 52.9609 98.2353 52.9901 98.3055 53.0485C98.3822 53.1004 98.4715 53.1912 98.5737 53.321L102.242 58.1589H101.993V53.5547C101.993 53.3665 102.041 53.2205 102.137 53.1166C102.239 53.0128 102.383 52.9609 102.568 52.9609C102.753 52.9609 102.893 53.0128 102.989 53.1166C103.085 53.2205 103.133 53.3665 103.133 53.5547V59.3952C103.133 59.5769 103.088 59.7196 102.999 59.8235C102.909 59.9273 102.788 59.9792 102.635 59.9792C102.488 59.9792 102.37 59.95 102.28 59.8916C102.197 59.8332 102.105 59.7391 102.003 59.6093L98.3438 54.7714H98.5833V59.3757C98.5833 59.5704 98.5354 59.7196 98.4396 59.8235C98.3438 59.9273 98.2034 59.9792 98.0182 59.9792Z" fill="#18A756"/>
<path d="M105.317 59.9792C105.119 59.9792 104.966 59.924 104.857 59.8137C104.755 59.6969 104.704 59.5379 104.704 59.3367V53.6033C104.704 53.3957 104.755 53.2367 104.857 53.1264C104.966 53.016 105.119 52.9609 105.317 52.9609C105.515 52.9609 105.665 53.016 105.767 53.1264C105.876 53.2367 105.93 53.3957 105.93 53.6033V59.3367C105.93 59.5379 105.879 59.6969 105.777 59.8137C105.675 59.924 105.521 59.9792 105.317 59.9792Z" fill="#18A756"/>
<path d="M108.116 59.9792C107.918 59.9792 107.765 59.924 107.656 59.8137C107.554 59.6969 107.503 59.5379 107.503 59.3367V53.5936C107.503 53.3859 107.554 53.2302 107.656 53.1264C107.765 53.016 107.918 52.9609 108.116 52.9609C108.314 52.9609 108.464 53.016 108.566 53.1264C108.675 53.2302 108.729 53.3859 108.729 53.5936V56.0758H108.748L111.497 53.2724C111.599 53.1685 111.701 53.0907 111.804 53.0387C111.906 52.9868 112.021 52.9609 112.148 52.9609C112.334 52.9609 112.465 53.0095 112.541 53.1069C112.624 53.2042 112.656 53.3178 112.637 53.4476C112.624 53.5774 112.564 53.6974 112.455 53.8077L109.658 56.6209L109.668 56.0563L112.589 59.0739C112.723 59.2037 112.793 59.34 112.8 59.4828C112.806 59.6255 112.761 59.7456 112.666 59.8429C112.576 59.9338 112.442 59.9792 112.263 59.9792C112.11 59.9792 111.986 59.9468 111.89 59.8819C111.8 59.817 111.695 59.7229 111.574 59.5996L108.748 56.728H108.729V59.3367C108.729 59.5379 108.678 59.6969 108.576 59.8137C108.474 59.924 108.32 59.9792 108.116 59.9792Z" fill="#18A756"/>
<path d="M117.278 59.9792C117.08 59.9792 116.927 59.924 116.818 59.8137C116.716 59.6969 116.665 59.5379 116.665 59.3367V53.5936C116.665 53.3859 116.716 53.2302 116.818 53.1264C116.927 53.016 117.08 52.9609 117.278 52.9609C117.476 52.9609 117.626 53.016 117.728 53.1264C117.836 53.2302 117.891 53.3859 117.891 53.5936V56.0758H117.91L120.659 53.2724C120.761 53.1685 120.863 53.0907 120.965 53.0387C121.067 52.9868 121.182 52.9609 121.31 52.9609C121.495 52.9609 121.626 53.0095 121.703 53.1069C121.786 53.2042 121.818 53.3178 121.799 53.4476C121.786 53.5774 121.725 53.6974 121.617 53.8077L118.82 56.6209L118.829 56.0563L121.751 59.0739C121.885 59.2037 121.955 59.34 121.961 59.4828C121.968 59.6255 121.923 59.7456 121.827 59.8429C121.738 59.9338 121.604 59.9792 121.425 59.9792C121.272 59.9792 121.147 59.9468 121.051 59.8819C120.962 59.817 120.857 59.7229 120.735 59.5996L117.91 56.728H117.891V59.3367C117.891 59.5379 117.84 59.6969 117.737 59.8137C117.635 59.924 117.482 59.9792 117.278 59.9792Z" fill="#18A756"/>
<path d="M123.782 59.9013C123.571 59.9013 123.408 59.8462 123.293 59.7358C123.185 59.619 123.13 59.4536 123.13 59.2394V53.7007C123.13 53.4865 123.185 53.3243 123.293 53.214C123.408 53.0972 123.571 53.0387 123.782 53.0387H127.201C127.361 53.0387 127.482 53.0809 127.565 53.1653C127.654 53.2497 127.699 53.3697 127.699 53.5255C127.699 53.6877 127.654 53.8142 127.565 53.9051C127.482 53.9895 127.361 54.0316 127.201 54.0316H124.308V55.9201H126.99C127.156 55.9201 127.281 55.9622 127.364 56.0466C127.447 56.131 127.488 56.2543 127.488 56.4165C127.488 56.5787 127.447 56.702 127.364 56.7864C127.281 56.8708 127.156 56.9129 126.99 56.9129H124.308V58.9084H127.201C127.361 58.9084 127.482 58.9506 127.565 59.035C127.654 59.1194 127.699 59.2426 127.699 59.4049C127.699 59.5671 127.654 59.6904 127.565 59.7748C127.482 59.8591 127.361 59.9013 127.201 59.9013H123.782Z" fill="#18A756"/>
<path d="M129.554 59.9792C129.356 59.9792 129.203 59.924 129.094 59.8137C128.992 59.6969 128.941 59.5379 128.941 59.3367V53.6715C128.941 53.4638 128.995 53.3081 129.104 53.2042C129.212 53.0939 129.366 53.0387 129.564 53.0387H131.872C132.613 53.0387 133.184 53.2205 133.586 53.5839C133.989 53.9408 134.19 54.4437 134.19 55.0927C134.19 55.5145 134.097 55.8779 133.912 56.1829C133.733 56.4879 133.472 56.7215 133.127 56.8837C132.782 57.046 132.364 57.1271 131.872 57.1271L131.958 56.9811H132.274C132.536 56.9811 132.763 57.046 132.954 57.1758C133.152 57.3056 133.325 57.51 133.472 57.789L134.19 59.1421C134.267 59.2783 134.302 59.4114 134.295 59.5412C134.289 59.671 134.241 59.778 134.152 59.8624C134.062 59.9403 133.931 59.9792 133.759 59.9792C133.586 59.9792 133.446 59.9435 133.337 59.8721C133.229 59.7943 133.133 59.6774 133.05 59.5217L132.083 57.7111C131.968 57.4905 131.83 57.3445 131.671 57.2731C131.518 57.1952 131.32 57.1563 131.077 57.1563H130.167V59.3367C130.167 59.5379 130.116 59.6969 130.014 59.8137C129.912 59.924 129.758 59.9792 129.554 59.9792ZM130.167 56.2316H131.661C132.102 56.2316 132.434 56.1407 132.657 55.959C132.887 55.7708 133.002 55.4918 133.002 55.1219C133.002 54.7584 132.887 54.4859 132.657 54.3042C132.434 54.116 132.102 54.0219 131.661 54.0219H130.167V56.2316Z" fill="#18A756"/>
<path d="M135.353 59.9695C135.174 59.976 135.034 59.9273 134.932 59.8235C134.829 59.7196 134.778 59.5866 134.778 59.4244C134.778 59.3011 134.817 59.194 134.893 59.1031C134.963 59.0058 135.069 58.9539 135.209 58.9474L135.497 58.9279C135.778 58.9084 135.988 58.8208 136.129 58.6651C136.276 58.5029 136.349 58.2725 136.349 57.974V53.5936C136.349 53.3859 136.4 53.2302 136.502 53.1264C136.611 53.016 136.764 52.9609 136.962 52.9609C137.16 52.9609 137.31 53.016 137.412 53.1264C137.521 53.2302 137.575 53.3859 137.575 53.5936V57.9642C137.575 58.3731 137.502 58.7203 137.355 59.0058C137.214 59.2913 137.004 59.5152 136.723 59.6774C136.442 59.8332 136.094 59.924 135.679 59.95L135.353 59.9695Z" fill="#18A756"/>
<path d="M139.199 59.9792C139.045 59.9792 138.921 59.9435 138.825 59.8721C138.736 59.8007 138.681 59.7066 138.662 59.5898C138.643 59.4665 138.666 59.3303 138.729 59.181L141.258 53.4865C141.341 53.2983 141.44 53.1653 141.555 53.0874C141.676 53.0031 141.814 52.9609 141.967 52.9609C142.114 52.9609 142.245 53.0031 142.359 53.0874C142.481 53.1653 142.583 53.2983 142.666 53.4865L145.204 59.181C145.274 59.3303 145.3 59.4665 145.281 59.5898C145.262 59.7131 145.207 59.8105 145.118 59.8819C145.029 59.9468 144.91 59.9792 144.764 59.9792C144.585 59.9792 144.444 59.937 144.342 59.8527C144.246 59.7618 144.16 59.6255 144.084 59.4438L143.461 57.974L143.978 58.3147H139.936L140.453 57.974L139.84 59.4438C139.757 59.632 139.671 59.7683 139.582 59.8527C139.492 59.937 139.365 59.9792 139.199 59.9792ZM141.948 54.3918L140.607 57.6333L140.358 57.3218H143.557L143.317 57.6333L141.967 54.3918H141.948Z" fill="#18A756"/>
<path d="M149.702 59.9013C149.492 59.9013 149.329 59.8462 149.214 59.7358C149.105 59.619 149.051 59.4536 149.051 59.2394V53.7007C149.051 53.4865 149.105 53.3243 149.214 53.214C149.329 53.0972 149.492 53.0387 149.702 53.0387H151.56C152.691 53.0387 153.562 53.334 154.175 53.9246C154.795 54.5151 155.104 55.362 155.104 56.4652C155.104 57.0168 155.024 57.5067 154.865 57.935C154.712 58.3568 154.482 58.7138 154.175 59.0058C153.875 59.2978 153.505 59.5217 153.064 59.6774C152.63 59.8267 152.129 59.9013 151.56 59.9013H149.702ZM150.277 58.8695H151.484C151.88 58.8695 152.221 58.8208 152.509 58.7235C152.802 58.6197 153.045 58.4704 153.237 58.2757C153.434 58.0746 153.581 57.8247 153.677 57.5262C153.773 57.2212 153.821 56.8675 153.821 56.4652C153.821 55.6605 153.626 55.0602 153.237 54.6644C152.847 54.2685 152.263 54.0706 151.484 54.0706H150.277V58.8695Z" fill="#18A756"/>
<path d="M156.369 59.9792C156.216 59.9792 156.091 59.9435 155.996 59.8721C155.906 59.8007 155.852 59.7066 155.833 59.5898C155.814 59.4665 155.836 59.3303 155.9 59.181L158.429 53.4865C158.512 53.2983 158.611 53.1653 158.725 53.0874C158.847 53.0031 158.984 52.9609 159.137 52.9609C159.284 52.9609 159.415 53.0031 159.53 53.0874C159.651 53.1653 159.754 53.2983 159.837 53.4865L162.375 59.181C162.445 59.3303 162.47 59.4665 162.451 59.5898C162.432 59.7131 162.378 59.8105 162.288 59.8819C162.199 59.9468 162.081 59.9792 161.934 59.9792C161.755 59.9792 161.615 59.937 161.513 59.8527C161.417 59.7618 161.331 59.6255 161.254 59.4438L160.631 57.974L161.149 58.3147H157.107L157.624 57.974L157.011 59.4438C156.928 59.632 156.842 59.7683 156.752 59.8527C156.663 59.937 156.535 59.9792 156.369 59.9792ZM159.118 54.3918L157.777 57.6333L157.528 57.3218H160.727L160.488 57.6333L159.137 54.3918H159.118Z" fill="#18A756"/>
<path d="M164.1 59.9792C163.915 59.9792 163.771 59.9273 163.669 59.8235C163.573 59.7196 163.525 59.5704 163.525 59.3757V53.5839C163.525 53.3827 163.573 53.2302 163.669 53.1264C163.771 53.016 163.902 52.9609 164.062 52.9609C164.209 52.9609 164.317 52.9901 164.387 53.0485C164.464 53.1004 164.553 53.1912 164.656 53.321L168.324 58.1589H168.075V53.5547C168.075 53.3665 168.123 53.2205 168.219 53.1166C168.321 53.0128 168.464 52.9609 168.65 52.9609C168.835 52.9609 168.975 53.0128 169.071 53.1166C169.167 53.2205 169.215 53.3665 169.215 53.5547V59.3952C169.215 59.5769 169.17 59.7196 169.081 59.8235C168.991 59.9273 168.87 59.9792 168.717 59.9792C168.57 59.9792 168.452 59.95 168.362 59.8916C168.279 59.8332 168.187 59.7391 168.085 59.6093L164.426 54.7714H164.665V59.3757C164.665 59.5704 164.617 59.7196 164.522 59.8235C164.426 59.9273 164.285 59.9792 164.1 59.9792Z" fill="#18A756"/>
<path d="M174.095 59.9792C173.897 59.9792 173.744 59.924 173.635 59.8137C173.533 59.6969 173.482 59.5379 173.482 59.3367V53.5936C173.482 53.3859 173.533 53.2302 173.635 53.1264C173.744 53.016 173.897 52.9609 174.095 52.9609C174.293 52.9609 174.443 53.016 174.545 53.1264C174.654 53.2302 174.708 53.3859 174.708 53.5936V56.0758H174.727L177.476 53.2724C177.578 53.1685 177.68 53.0907 177.783 53.0387C177.885 52.9868 178 52.9609 178.127 52.9609C178.313 52.9609 178.444 53.0095 178.52 53.1069C178.603 53.2042 178.635 53.3178 178.616 53.4476C178.603 53.5774 178.543 53.6974 178.434 53.8077L175.637 56.6209L175.647 56.0563L178.568 59.0739C178.702 59.2037 178.772 59.34 178.779 59.4828C178.785 59.6255 178.74 59.7456 178.645 59.8429C178.555 59.9338 178.421 59.9792 178.242 59.9792C178.089 59.9792 177.965 59.9468 177.869 59.8819C177.779 59.817 177.674 59.7229 177.553 59.5996L174.727 56.728H174.708V59.3367C174.708 59.5379 174.657 59.6969 174.555 59.8137C174.453 59.924 174.299 59.9792 174.095 59.9792Z" fill="#18A756"/>
<path d="M180.599 59.9013C180.388 59.9013 180.225 59.8462 180.11 59.7358C180.002 59.619 179.948 59.4536 179.948 59.2394V53.7007C179.948 53.4865 180.002 53.3243 180.11 53.214C180.225 53.0972 180.388 53.0387 180.599 53.0387H184.018C184.178 53.0387 184.299 53.0809 184.382 53.1653C184.472 53.2497 184.516 53.3697 184.516 53.5255C184.516 53.6877 184.472 53.8142 184.382 53.9051C184.299 53.9895 184.178 54.0316 184.018 54.0316H181.126V55.9201H183.808C183.974 55.9201 184.098 55.9622 184.181 56.0466C184.264 56.131 184.306 56.2543 184.306 56.4165C184.306 56.5787 184.264 56.702 184.181 56.7864C184.098 56.8708 183.974 56.9129 183.808 56.9129H181.126V58.9084H184.018C184.178 58.9084 184.299 58.9506 184.382 59.035C184.472 59.1194 184.516 59.2426 184.516 59.4049C184.516 59.5671 184.472 59.6904 184.382 59.7748C184.299 59.8591 184.178 59.9013 184.018 59.9013H180.599Z" fill="#18A756"/>
<path d="M186.371 59.9792C186.174 59.9792 186.02 59.924 185.912 59.8137C185.81 59.6969 185.758 59.5379 185.758 59.3367V53.6033C185.758 53.3957 185.81 53.2367 185.912 53.1264C186.02 53.016 186.174 52.9609 186.371 52.9609C186.569 52.9609 186.719 53.016 186.822 53.1264C186.93 53.2367 186.984 53.3957 186.984 53.6033V55.9006H190.461V53.6033C190.461 53.3957 190.512 53.2367 190.615 53.1264C190.723 53.016 190.876 52.9609 191.074 52.9609C191.272 52.9609 191.422 53.016 191.524 53.1264C191.633 53.2367 191.687 53.3957 191.687 53.6033V59.3367C191.687 59.5379 191.633 59.6969 191.524 59.8137C191.422 59.924 191.272 59.9792 191.074 59.9792C190.876 59.9792 190.723 59.924 190.615 59.8137C190.512 59.6969 190.461 59.5379 190.461 59.3367V56.9421H186.984V59.3367C186.984 59.5379 186.933 59.6969 186.831 59.8137C186.729 59.924 186.576 59.9792 186.371 59.9792Z" fill="#18A756"/>
<path d="M193.329 59.9792C193.176 59.9792 193.052 59.9435 192.956 59.8721C192.866 59.8007 192.812 59.7066 192.793 59.5898C192.774 59.4665 192.796 59.3303 192.86 59.181L195.389 53.4865C195.472 53.2983 195.571 53.1653 195.686 53.0874C195.807 53.0031 195.944 52.9609 196.097 52.9609C196.244 52.9609 196.375 53.0031 196.49 53.0874C196.611 53.1653 196.714 53.2983 196.797 53.4865L199.335 59.181C199.405 59.3303 199.431 59.4665 199.411 59.5898C199.392 59.7131 199.338 59.8105 199.249 59.8819C199.159 59.9468 199.041 59.9792 198.894 59.9792C198.715 59.9792 198.575 59.937 198.473 59.8527C198.377 59.7618 198.291 59.6255 198.214 59.4438L197.592 57.974L198.109 58.3147H194.067L194.584 57.974L193.971 59.4438C193.888 59.632 193.802 59.7683 193.712 59.8527C193.623 59.937 193.495 59.9792 193.329 59.9792ZM196.078 54.3918L194.737 57.6333L194.488 57.3218H197.687L197.448 57.6333L196.097 54.3918H196.078Z" fill="#18A756"/>
<path d="M201.137 59.9013C200.926 59.9013 200.763 59.8462 200.648 59.7358C200.54 59.619 200.486 59.4536 200.486 59.2394V53.7007C200.486 53.4865 200.54 53.3243 200.648 53.214C200.763 53.0972 200.926 53.0387 201.137 53.0387H202.995C204.125 53.0387 204.997 53.334 205.61 53.9246C206.229 54.5151 206.539 55.362 206.539 56.4652C206.539 57.0168 206.459 57.5067 206.299 57.935C206.146 58.3568 205.916 58.7138 205.61 59.0058C205.31 59.2978 204.939 59.5217 204.499 59.6774C204.065 59.8267 203.563 59.9013 202.995 59.9013H201.137ZM201.712 58.8695H202.918C203.314 58.8695 203.656 58.8208 203.943 58.7235C204.237 58.6197 204.48 58.4704 204.671 58.2757C204.869 58.0746 205.016 57.8247 205.112 57.5262C205.208 57.2212 205.255 56.8675 205.255 56.4652C205.255 55.6605 205.061 55.0602 204.671 54.6644C204.282 54.2685 203.697 54.0706 202.918 54.0706H201.712V58.8695Z" fill="#18A756"/>
<path d="M208.49 59.9792C208.292 59.9792 208.139 59.924 208.03 59.8137C207.928 59.6969 207.877 59.5379 207.877 59.3367V53.6033C207.877 53.3957 207.928 53.2367 208.03 53.1264C208.139 53.016 208.292 52.9609 208.49 52.9609C208.688 52.9609 208.838 53.016 208.94 53.1264C209.049 53.2367 209.103 53.3957 209.103 53.6033V59.3367C209.103 59.5379 209.052 59.6969 208.95 59.8137C208.848 59.924 208.694 59.9792 208.49 59.9792Z" fill="#18A756"/>
<path d="M211.289 59.9792C211.091 59.9792 210.938 59.924 210.829 59.8137C210.727 59.6969 210.676 59.5379 210.676 59.3367V53.6715C210.676 53.4638 210.73 53.3081 210.839 53.2042C210.947 53.0939 211.101 53.0387 211.299 53.0387H213.607C214.348 53.0387 214.919 53.2205 215.321 53.5839C215.724 53.9408 215.925 54.4437 215.925 55.0927C215.925 55.5145 215.832 55.8779 215.647 56.1829C215.468 56.4879 215.206 56.7215 214.862 56.8837C214.517 57.046 214.099 57.1271 213.607 57.1271L213.693 56.9811H214.009C214.271 56.9811 214.498 57.046 214.689 57.1758C214.887 57.3056 215.06 57.51 215.206 57.789L215.925 59.1421C216.001 59.2783 216.037 59.4114 216.03 59.5412C216.024 59.671 215.976 59.778 215.887 59.8624C215.797 59.9403 215.666 59.9792 215.494 59.9792C215.321 59.9792 215.181 59.9435 215.072 59.8721C214.964 59.7943 214.868 59.6774 214.785 59.5217L213.818 57.7111C213.703 57.4905 213.565 57.3445 213.406 57.2731C213.253 57.1952 213.055 57.1563 212.812 57.1563H211.902V59.3367C211.902 59.5379 211.851 59.6969 211.749 59.8137C211.647 59.924 211.493 59.9792 211.289 59.9792ZM211.902 56.2316H213.396C213.837 56.2316 214.169 56.1407 214.392 55.959C214.622 55.7708 214.737 55.4918 214.737 55.1219C214.737 54.7584 214.622 54.4859 214.392 54.3042C214.169 54.116 213.837 54.0219 213.396 54.0219H211.902V56.2316Z" fill="#18A756"/>
<path d="M217.283 59.9792C217.13 59.9792 217.006 59.9435 216.91 59.8721C216.821 59.8007 216.766 59.7066 216.747 59.5898C216.728 59.4665 216.75 59.3303 216.814 59.181L219.343 53.4865C219.426 53.2983 219.525 53.1653 219.64 53.0874C219.761 53.0031 219.898 52.9609 220.052 52.9609C220.198 52.9609 220.329 53.0031 220.444 53.0874C220.566 53.1653 220.668 53.2983 220.751 53.4865L223.289 59.181C223.359 59.3303 223.385 59.4665 223.366 59.5898C223.346 59.7131 223.292 59.8105 223.203 59.8819C223.113 59.9468 222.995 59.9792 222.848 59.9792C222.67 59.9792 222.529 59.937 222.427 59.8527C222.331 59.7618 222.245 59.6255 222.168 59.4438L221.546 57.974L222.063 58.3147H218.021L218.538 57.974L217.925 59.4438C217.842 59.632 217.756 59.7683 217.667 59.8527C217.577 59.937 217.45 59.9792 217.283 59.9792ZM220.032 54.3918L218.691 57.6333L218.442 57.3218H221.641L221.402 57.6333L220.052 54.3918H220.032Z" fill="#18A756"/>
<path d="M225.014 59.9792C224.829 59.9792 224.685 59.9273 224.583 59.8235C224.488 59.7196 224.44 59.5704 224.44 59.3757V53.5839C224.44 53.3827 224.488 53.2302 224.583 53.1264C224.685 53.016 224.816 52.9609 224.976 52.9609C225.123 52.9609 225.231 52.9901 225.302 53.0485C225.378 53.1004 225.468 53.1912 225.57 53.321L229.238 58.1589H228.989V53.5547C228.989 53.3665 229.037 53.2205 229.133 53.1166C229.235 53.0128 229.379 52.9609 229.564 52.9609C229.749 52.9609 229.89 53.0128 229.985 53.1166C230.081 53.2205 230.129 53.3665 230.129 53.5547V59.3952C230.129 59.5769 230.084 59.7196 229.995 59.8235C229.906 59.9273 229.784 59.9792 229.631 59.9792C229.484 59.9792 229.366 59.95 229.277 59.8916C229.194 59.8332 229.101 59.7391 228.999 59.6093L225.34 54.7714H225.579V59.3757C225.579 59.5704 225.532 59.7196 225.436 59.8235C225.34 59.9273 225.2 59.9792 225.014 59.9792Z" fill="#18A756"/>
</svg>
