<svg width="24" height="24" viewBox="0 0 24 24" fill="none" xmlns="http://www.w3.org/2000/svg">
<rect opacity="0.3" x="3" y="3.00049" width="18" height="18" rx="2" fill="white"/>
<path d="M3 5.00049V19.0005C3 20.1055 3.895 21.0005 5 21.0005H19C20.105 21.0005 21 20.1055 21 19.0005V5.00049C21 3.89549 20.105 3.00049 19 3.00049H5C3.895 3.00049 3 3.89549 3 5.00049ZM15 9.00049C15 10.6605 13.655 12.0005 12 12.0005C10.345 12.0005 9 10.6605 9 9.00049C9 7.34549 10.345 6.00049 12 6.00049C13.655 6.00049 15 7.34549 15 9.00049ZM6 17.0005C6 15.0005 10 13.9005 12 13.9005C14 13.9005 18 15.0005 18 17.0005V18.0005H6V17.0005Z" fill="white"/>
</svg>
